<svg width="113" height="24" viewBox="0 0 113 24" fill="none" xmlns="http://www.w3.org/2000/svg">
<g clip-path="url(#clip0_53_12)">
<path d="M18.5001 24.0001H13.0341C11.1609 24.0328 9.30146 23.6753 7.57399 22.9504C5.84652 22.2254 4.28884 21.1488 3.00007 19.7891C1.90958 18.5969 1.08333 17.1878 0.575457 15.654C0.0675879 14.1202 -0.110431 12.4965 0.0530679 10.8891C0.301156 8.27373 1.39897 5.81158 3.17865 3.87913C4.95833 1.94667 7.32194 0.650247 9.90807 0.188087C11.607 -0.127043 13.3548 -0.0599994 15.0247 0.384353C16.6945 0.828706 18.2444 1.63922 19.5621 2.75709C20.957 3.92969 22.0774 5.39427 22.8443 7.04737C23.6112 8.70047 24.0057 10.5018 24.0001 12.3241V18.5001C23.9982 19.9582 23.4182 21.3561 22.3871 22.3871C21.3561 23.4182 19.9582 23.9982 18.5001 24.0001ZM12.0301 3.00009C9.78457 2.99815 7.61907 3.83374 5.9569 5.34353C4.29473 6.85332 3.25539 8.92874 3.04207 11.1641C2.91972 12.3565 3.05068 13.5613 3.42637 14.6995C3.80205 15.8378 4.41398 16.8838 5.22207 17.7691C6.2292 18.8196 7.44371 19.6493 8.78854 20.2055C10.1334 20.7617 11.5791 21.0323 13.0341 21.0001H18.5001C19.1631 21.0001 19.799 20.7367 20.2678 20.2679C20.7367 19.799 21.0001 19.1631 21.0001 18.5001V12.3241C21.0047 10.9399 20.7057 9.57154 20.1241 8.31544C19.5425 7.05934 18.6925 5.94607 17.6341 5.05409C16.0695 3.72523 14.0828 2.99706 12.0301 3.00009ZM10.5001 17.0001C10.1712 17.0005 9.84554 16.9361 9.54165 16.8105C9.23775 16.6849 8.96162 16.5006 8.72907 16.2681L5.95607 13.5771C5.67401 13.2994 5.51314 12.9215 5.50851 12.5257C5.50389 12.1299 5.65589 11.7483 5.93138 11.4641C6.20687 11.1799 6.58353 11.0161 6.97927 11.0085C7.375 11.0008 7.75774 11.1498 8.04407 11.4231L10.5001 13.8001L15.9501 8.43109C16.0895 8.28915 16.2558 8.17638 16.4393 8.09934C16.6228 8.0223 16.8197 7.98254 17.0187 7.98237C17.2177 7.9822 17.4147 8.02162 17.5983 8.09834C17.782 8.17506 17.9485 8.28754 18.0882 8.42924C18.2279 8.57093 18.338 8.73901 18.4121 8.92368C18.4862 9.10835 18.5228 9.30592 18.5199 9.50488C18.5169 9.70385 18.4743 9.90023 18.3947 10.0826C18.3151 10.265 18.2 10.4296 18.0561 10.5671L12.2601 16.2751C12.029 16.5061 11.7546 16.689 11.4525 16.8135C11.1505 16.9379 10.8268 17.0013 10.5001 17.0001Z" fill="#1D4ED8"/>
</g>
<path d="M33.152 18V6.752H35.328V18H33.152ZM34.752 18V16.08H40.976V18H34.752ZM34.752 13.184V11.328H40.416V13.184H34.752ZM34.752 8.672V6.752H40.896V8.672H34.752ZM47.385 18L45.353 14.864L44.921 14.544L41.913 10.272H44.393L46.265 13.104L46.665 13.408L49.849 18H47.385ZM41.753 18L44.905 13.584L46.105 15.008L44.121 18H41.753ZM46.745 14.528L45.513 13.12L47.353 10.272H49.705L46.745 14.528ZM53.9569 18.16C53.2529 18.16 52.6182 17.984 52.0529 17.632C51.4875 17.28 51.0449 16.8 50.7249 16.192C50.4049 15.584 50.2449 14.9013 50.2449 14.144C50.2449 13.376 50.4049 12.688 50.7249 12.08C51.0449 11.472 51.4875 10.992 52.0529 10.64C52.6182 10.288 53.2529 10.112 53.9569 10.112C54.5115 10.112 55.0075 10.224 55.4449 10.448C55.8822 10.672 56.2289 10.9867 56.4849 11.392C56.7515 11.7867 56.8955 12.2347 56.9169 12.736V15.52C56.8955 16.032 56.7515 16.4853 56.4849 16.88C56.2289 17.2747 55.8822 17.5893 55.4449 17.824C55.0075 18.048 54.5115 18.16 53.9569 18.16ZM54.3409 16.224C54.9275 16.224 55.4022 16.032 55.7649 15.648C56.1275 15.2533 56.3089 14.7467 56.3089 14.128C56.3089 13.7227 56.2235 13.3653 56.0529 13.056C55.8929 12.736 55.6635 12.4907 55.3649 12.32C55.0769 12.1387 54.7355 12.048 54.3409 12.048C53.9569 12.048 53.6155 12.1387 53.3169 12.32C53.0289 12.4907 52.7995 12.736 52.6289 13.056C52.4689 13.3653 52.3889 13.7227 52.3889 14.128C52.3889 14.544 52.4689 14.912 52.6289 15.232C52.7995 15.5413 53.0289 15.7867 53.3169 15.968C53.6155 16.1387 53.9569 16.224 54.3409 16.224ZM56.1969 18V15.92L56.5329 14.032L56.1969 12.176V10.272H58.2769V18H56.1969ZM60.1311 18V10.272H62.2271V18H60.1311ZM65.1711 18V13.44C65.1711 12.992 65.0271 12.6453 64.7391 12.4C64.4618 12.144 64.1151 12.016 63.6991 12.016C63.4218 12.016 63.1711 12.0747 62.9471 12.192C62.7231 12.2987 62.5471 12.4587 62.4191 12.672C62.2911 12.8853 62.2271 13.1413 62.2271 13.44L61.4111 13.04C61.4111 12.4427 61.5391 11.9253 61.7951 11.488C62.0618 11.0507 62.4191 10.7147 62.8671 10.48C63.3151 10.2347 63.8218 10.112 64.3871 10.112C64.9205 10.112 65.4058 10.2347 65.8431 10.48C66.2805 10.7147 66.6271 11.0507 66.8831 11.488C67.1391 11.9147 67.2671 12.432 67.2671 13.04V18H65.1711ZM70.2111 18V13.44C70.2111 12.992 70.0671 12.6453 69.7791 12.4C69.5018 12.144 69.1551 12.016 68.7391 12.016C68.4725 12.016 68.2218 12.0747 67.9871 12.192C67.7631 12.2987 67.5871 12.4587 67.4591 12.672C67.3311 12.8853 67.2671 13.1413 67.2671 13.44L66.0671 13.152C66.1098 12.5333 66.2751 12 66.5631 11.552C66.8511 11.0933 67.2298 10.7413 67.6991 10.496C68.1685 10.24 68.6911 10.112 69.2671 10.112C69.8431 10.112 70.3605 10.2347 70.8191 10.48C71.2778 10.7147 71.6405 11.056 71.9071 11.504C72.1738 11.952 72.3071 12.4853 72.3071 13.104V18H70.2111ZM78.2941 18.16C77.7395 18.16 77.2381 18.048 76.7901 17.824C76.3421 17.5893 75.9848 17.2747 75.7181 16.88C75.4515 16.4853 75.3075 16.032 75.2861 15.52V12.784C75.3075 12.272 75.4515 11.8187 75.7181 11.424C75.9955 11.0187 76.3528 10.6987 76.7901 10.464C77.2381 10.2293 77.7395 10.112 78.2941 10.112C79.0088 10.112 79.6488 10.288 80.2141 10.64C80.7795 10.992 81.2221 11.472 81.5421 12.08C81.8728 12.688 82.0381 13.376 82.0381 14.144C82.0381 14.9013 81.8728 15.584 81.5421 16.192C81.2221 16.8 80.7795 17.28 80.2141 17.632C79.6488 17.984 79.0088 18.16 78.2941 18.16ZM77.9261 16.224C78.3101 16.224 78.6515 16.1387 78.9501 15.968C79.2488 15.7867 79.4781 15.5413 79.6381 15.232C79.8088 14.912 79.8941 14.544 79.8941 14.128C79.8941 13.7227 79.8088 13.3653 79.6381 13.056C79.4781 12.736 79.2488 12.4907 78.9501 12.32C78.6515 12.1387 78.3101 12.048 77.9261 12.048C77.5528 12.048 77.2168 12.1387 76.9181 12.32C76.6195 12.4907 76.3848 12.736 76.2141 13.056C76.0541 13.3653 75.9741 13.7227 75.9741 14.128C75.9741 14.544 76.0541 14.912 76.2141 15.232C76.3848 15.5413 76.6141 15.7867 76.9021 15.968C77.2008 16.1387 77.5421 16.224 77.9261 16.224ZM74.0061 21.232V10.272H76.1021V12.304L75.7501 14.176L76.0861 16.048V21.232H74.0061ZM83.4124 18V6.432H85.5084V18H83.4124ZM91.0615 18.16C90.2508 18.16 89.5308 17.9893 88.9015 17.648C88.2722 17.296 87.7708 16.816 87.3975 16.208C87.0348 15.6 86.8535 14.9067 86.8535 14.128C86.8535 13.36 87.0295 12.6773 87.3815 12.08C87.7442 11.472 88.2348 10.992 88.8535 10.64C89.4722 10.2773 90.1602 10.096 90.9175 10.096C91.6642 10.096 92.3202 10.2667 92.8855 10.608C93.4615 10.9387 93.9095 11.3973 94.2295 11.984C94.5602 12.56 94.7255 13.216 94.7255 13.952C94.7255 14.0907 94.7148 14.2347 94.6935 14.384C94.6828 14.5227 94.6562 14.6827 94.6135 14.864L88.1175 14.88V13.312L93.6375 13.296L92.7895 13.952C92.7682 13.4933 92.6828 13.1093 92.5335 12.8C92.3948 12.4907 92.1868 12.256 91.9095 12.096C91.6428 11.9253 91.3122 11.84 90.9175 11.84C90.5015 11.84 90.1388 11.936 89.8295 12.128C89.5202 12.3093 89.2802 12.5707 89.1095 12.912C88.9495 13.2427 88.8695 13.6373 88.8695 14.096C88.8695 14.5653 88.9548 14.976 89.1255 15.328C89.3068 15.6693 89.5628 15.936 89.8935 16.128C90.2242 16.3093 90.6082 16.4 91.0455 16.4C91.4402 16.4 91.7975 16.336 92.1175 16.208C92.4375 16.0693 92.7148 15.8667 92.9495 15.6L94.1815 16.832C93.8082 17.2693 93.3495 17.6 92.8055 17.824C92.2722 18.048 91.6908 18.16 91.0615 18.16ZM97.4618 18.16C97.0778 18.16 96.7631 18.032 96.5178 17.776C96.2724 17.52 96.1497 17.2053 96.1497 16.832C96.1497 16.4587 96.2724 16.144 96.5178 15.888C96.7631 15.632 97.0778 15.504 97.4618 15.504C97.8351 15.504 98.1444 15.632 98.3898 15.888C98.6351 16.144 98.7578 16.4587 98.7578 16.832C98.7578 17.2053 98.6351 17.52 98.3898 17.776C98.1444 18.032 97.8351 18.16 97.4618 18.16ZM100.741 18V10.272H102.853V18H100.741ZM101.797 9.024C101.455 9.024 101.173 8.912 100.949 8.688C100.725 8.45333 100.613 8.16533 100.613 7.824C100.613 7.49333 100.725 7.21067 100.949 6.976C101.173 6.74133 101.455 6.624 101.797 6.624C102.149 6.624 102.431 6.74133 102.645 6.976C102.869 7.21067 102.981 7.49333 102.981 7.824C102.981 8.16533 102.869 8.45333 102.645 8.688C102.431 8.912 102.149 9.024 101.797 9.024ZM108.341 18.16C107.563 18.16 106.859 17.984 106.229 17.632C105.611 17.2693 105.115 16.784 104.741 16.176C104.379 15.5573 104.197 14.8693 104.197 14.112C104.197 13.3547 104.379 12.6773 104.741 12.08C105.104 11.472 105.6 10.992 106.229 10.64C106.859 10.2773 107.557 10.096 108.325 10.096C109.115 10.096 109.819 10.2773 110.437 10.64C111.067 10.992 111.563 11.472 111.925 12.08C112.288 12.6773 112.469 13.3547 112.469 14.112C112.469 14.8693 112.288 15.5573 111.925 16.176C111.563 16.784 111.067 17.2693 110.437 17.632C109.819 17.984 109.12 18.16 108.341 18.16ZM108.325 16.208C108.72 16.208 109.067 16.1227 109.365 15.952C109.675 15.7707 109.909 15.5253 110.069 15.216C110.24 14.896 110.325 14.5333 110.325 14.128C110.325 13.7227 110.24 13.3653 110.069 13.056C109.899 12.7467 109.664 12.5067 109.365 12.336C109.067 12.1547 108.72 12.064 108.325 12.064C107.941 12.064 107.6 12.1547 107.301 12.336C107.003 12.5067 106.768 12.7467 106.597 13.056C106.427 13.3653 106.341 13.7227 106.341 14.128C106.341 14.5333 106.427 14.896 106.597 15.216C106.768 15.5253 107.003 15.7707 107.301 15.952C107.6 16.1227 107.941 16.208 108.325 16.208Z" fill="black"/>
<defs>
<clipPath id="clip0_53_12">
<rect width="24" height="24" fill="white"/>
</clipPath>
</defs>
</svg>
